PathFileType	4	(X/Y/Z)	C:/Users/beibeiliu/ov580/test_trc\sequence.22_training_dense_right.trc
DataRate	CameraRate	NumFrames	NumMarkers	Units	OrigDataRate	OrigDataStartFrame	OrigNumFrames
120	120	12	19	mm	120	122	324
Frame#	Time	ThumbCMC			ThumbMCP			ThumbIP			ThumbTip			IndexMCP			IndexPIP			IndexTip			MiddleMCP			MiddlePIP			MiddleTip			RingMCP			RingPIP			RingTip			PinkyMCP			PinkyPIP			PinkyTip			BackHand1			BackHand2			BackHand3	
		X0	Y0	Z0	X1	Y1	Z1	X2	Y2	Z2	X3	Y3	Z3	X4	Y4	Z4	X5	Y5	Z5	X6	Y6	Z6	X7	Y7	Z7	X8	Y8	Z8	X9	Y9	Z9	X10	Y10	Z10	X11	Y11	Z11	X12	Y12	Z12	X13	Y13	Z13	X14	Y14	Z14	X15	Y15	Z15	X16	Y16	Z16	X17	Y17	Z17	X18	Y18	Z18	
121	1.00833	237.288	40.9497	31.6127	227.404	56.8653	8.79883	226.1	61.4476	-18.0746	224.112	70.0981	-34.0366	250.842	19.0443	-26.8953	249.232	30.8346	-52.8004	239.81	40.0934	-72.3207	228.426	14.5201	-32.351	213.392	39.2893	-39.7324	210.257	41.4766	-4.04186	209.738	9.35573	-29.3202	198.405	34.9895	-24.4885	206.939	36.8253	1.86857	196.247	2.82019	-20.8461	192.964	25.9338	-22.421	200.017	31.8404	4.03188	222.666	-9.21408	15.7707	217.044	-7.33908	42.8901	239.722	4.82805	29.0972	
122	1.01667	237.176	43.0576	31.409	226.049	57.8356	6.34046	223.637	60.6914	-16.7288	222.204	64.8647	-36.6439	256.403	22.7185	-27.3595	253.012	30.5292	-51.5128	247.425	38.9593	-67.3591	234.662	15.0803	-30.8462	214.606	35.4067	-38.7042	212.453	41.7978	-5.12074	213.826	9.15711	-29.6531	201.814	33.4913	-24.6114	205.801	33.5092	3.73272	203.684	3.3855	-21.7101	196.281	22.5417	-21.8793	200.99	25.8631	6.74706	226.265	-11.5968	16.2121	218.656	-7.96958	47.0862	245.56	9.19829	35.7793	
123	1.025	234.676	45.0671	34.2078	224.636	57.9141	3.43509	221.46	59.3089	-14.9926	219.116	69.6923	-36.1198	259.849	25.3372	-24.4023	257.38	32.1121	-46.8779	246.824	39.1516	-71.2351	236.645	15.7746	-31.0075	216.437	36.653	-36.3145	213.11	41.4794	-6.03473	218.553	10.0061	-29.8575	204.702	31.9598	-22.9461	206.809	31.5734	3.32195	205.908	-2.7234	-19.3332	195.547	21.9761	-15.2799	202.568	24.5293	9.06326	229.704	-10.9948	19.106	224.45	-7.10681	48.1287	245.938	12.2706	36.4274	
124	1.03333	231.509	44.2551	32.8789	221.248	55.5628	6.75358	218.124	60.1457	-17.2028	215.851	63.579	-36.47	261.192	29.4767	-24.6319	257.184	35.0483	-46.2821	250.122	42.7555	-67.0601	241.624	21.1006	-31.7255	218.171	32.8843	-38.0132	211.673	37.9706	-3.94986	220.931	8.10757	-26.5824	203.535	28.1049	-22.3298	209.845	30.5334	6.19651	208.296	-1.57943	-20.2613	197.759	19.1657	-12.955	206.173	22.0259	8.95314	235.207	-6.1827	19.7441	229.104	-2.20114	49.8277	248.4	17.2897	37.5158	
125	1.04167	228.89	47.3088	35.279	217.216	57.6257	4.85964	214.053	59.8922	-15.3815	213.074	65.7692	-36.3358	261.166	35.2546	-18.9198	258.378	41.7227	-41.7758	249.123	46.7635	-66.4099	242.688	20.5476	-27.9773	217.742	39.292	-34.0051	212.682	36.7573	-0.582622	226.797	12.7531	-25.1928	203.734	27.5369	-18.2922	209.292	30.1319	5.84839	217.344	-0.18966	-15.4389	202.135	16.8435	-15.6964	206.871	21.5563	9.23889	240.439	-6.97244	21.5779	230.706	-2.64232	48.4032	248.736	21.061	37.9548	
126	1.05	223.766	48.4961	35.2451	211.689	56.4714	8.12575	209.338	62.0504	-14.8587	206.615	64.7966	-31.8693	259.567	44.608	-16.3629	254.372	45.804	-42.8823	246.754	47.8912	-63.5338	242.466	26.2946	-28.1468	215.329	36.6275	-31.8682	209.811	34.9261	-0.688339	226.756	12.5101	-24.9603	205.955	26.7152	-18.7602	207.5	25.9232	10.4456	220.085	-1.21484	-15.0384	200.632	13.6241	-11.2356	208.471	20.6674	12.7215	245.57	1.35398	23.7561	233.832	-1.83034	50.8333	250.027	25.7674	40.1373	
127	1.05833	217.698	51.5635	36.9535	206.818	54.1457	7.41876	201.091	60.6763	-11.5513	199.12	66.3801	-31.352	254.481	49.6454	-15.3674	250.978	57.9732	-39.7342	242.644	59.3312	-62.2306	243.06	35.709	-23.6147	212.95	37.0534	-28.9955	208.941	36.8792	3.14964	230.917	19.9129	-21.3832	203.343	26.2563	-14.8019	206.131	24.8755	10.527	222.055	2.51328	-17.4834	203.171	15.3269	-7.58568	208.157	18.71	16.4696	246.894	6.24374	24.1889	233.651	6.36635	54.7269	242.945	30.0915	44.0068	
128	1.06667	208.553	54.9549	40.0299	197.945	54.6411	12.2831	195.092	59.6488	-11.2895	190.65	68.1582	-32.3142	249.233	62.6625	-12.3046	245.863	63.5575	-33.384	237.832	65.915	-56.1904	241.83	42.144	-18.5463	211.328	42.2952	-28.438	206.667	38.234	4.53205	231.926	26.3176	-21.1457	204.882	27.9088	-14.901	208.419	27.8248	13.0947	226.954	5.86451	-15.4613	207.305	16.0843	-10.738	210.293	21.6194	12.7734	248.808	15.0182	25.3359	238.624	9.03846	54.3641	239.219	37.0891	46.6114	
129	1.075	204.548	52.3215	38.305	193.427	55.1415	10.0799	187.51	61.3041	-10.9926	182.667	65.8819	-28.838	243.109	67.9959	-12.9451	238.528	73.8762	-31.88	231.973	72.8262	-54.9652	237.474	50.2984	-20.8832	209.748	40.595	-27.5973	203.408	40.4217	5.30712	233.308	30.654	-17.762	207.684	27.0841	-17.368	207.465	26.6682	13.8521	234.295	14.0775	-10.3525	208.077	13.8985	-6.15991	211.648	18.0817	17.5217	248.605	23.6889	29.3345	235.478	16.6431	56.9802	236.151	45.4621	48.097	
130	1.08333	198.849	50.6991	40.8838	186.373	54.9113	8.80769	184.627	58.5617	-12.4865	179.155	62.0736	-29.4498	235.055	74.884	-8.37237	229.855	80.0949	-30.0767	227.769	76.2625	-53.4692	234.584	51.3333	-20.4452	208.037	41.5532	-25.6491	201.557	36.8658	2.68326	233.016	33.3262	-17.2576	206.883	27.6503	-14.0166	207.263	28.1842	15.4532	234.059	20.381	-10.9665	212.752	14.7792	-8.83826	211.256	21.6451	19.1361	247.964	33.4374	31.3112	238.37	18.1097	55.616	231.507	48.4283	47.2679	
131	1.09167	195.988	49.5287	38.4746	183.188	48.1144	12.6958	177.76	55.6237	-12.525	173.376	59.2155	-27.2851	224.857	81.992	-4.07488	224.039	84.6313	-27.6873	218.042	84.6632	-51.2488	232.599	57.9377	-14.1685	207.437	42.089	-25.1456	203.849	34.1645	5.44794	234.518	38.561	-13.9163	209.114	28.0521	-14.4076	209.555	26.9981	15.4033	238.451	24.5478	-9.98431	214.559	17.9863	-5.21068	212.025	20.7749	18.8771	244.937	38.9134	34.0642	240.579	28.2077	55.5516	228.326	53.6673	47.3679	
132	1.1	187.834	45.9869	41.3943	180.165	45.2983	11.8292	176.497	53.3605	-12.8539	174.842	55.8886	-28.7585	222.011	81.0101	-3.21533	220.256	84.9389	-27.2316	212.587	87.8286	-54.4941	228.172	65.6194	-13.1413	209.081	42.5852	-26.1402	203.867	33.3189	2.24992	234.006	43.5381	-13.8233	212.619	30.1814	-15.6794	209.098	30.1521	14.3853	243.103	29.7825	-6.55035	217.362	20.5077	-4.15205	216.038	25.3054	17.6013	246.767	44.0843	36.6396	239.659	28.0883	58.7921	222.11	54.813	53.4725	
